<?xml version="1.0" encoding="utf-8"?>
<!-- Generator: Adobe Illustrator 19.1.0, SVG Export Plug-In . SVG Version: 6.00 Build 0)  -->
<svg version="1.1" id="Layer_1" xmlns="http://www.w3.org/2000/svg" xmlns:xlink="http://www.w3.org/1999/xlink" x="0px" y="0px"
	 viewBox="148 -12.9 327 73.3" style="enable-background:new 148 -12.9 327 73.3;" xml:space="preserve">
<g>
	<path d="M158.5,4.5v32.7h11.2v5.4h-16.9V4.5H158.5z"/>
	<path d="M179.7,18.5v13.8c0,4,1.6,6,4.7,6c3.1,0,4.7-2,4.7-6V18.5h5.5v13.9c0,1.9-0.2,3.6-0.7,5c-0.5,1.2-1.3,2.4-2.4,3.4
		c-1.9,1.6-4.3,2.4-7.2,2.4c-2.9,0-5.3-0.8-7.1-2.4c-1.2-1-2-2.1-2.4-3.4c-0.5-1.1-0.7-2.8-0.7-5V18.5H179.7z"/>
	<path d="M201.7,18.5h5.5v2.1c1-1.1,1.9-1.8,2.7-2.2c0.8-0.4,1.8-0.6,2.9-0.6c1.5,0,3,0.5,4.6,1.4l-2.5,5.1
		c-1.1-0.8-2.1-1.1-3.1-1.1c-3,0-4.5,2.3-4.5,6.9v12.5h-5.5V18.5z"/>
	<path d="M220.5,8.6c0-1,0.4-1.8,1.1-2.5c0.7-0.7,1.6-1.1,2.5-1.1c1,0,1.9,0.4,2.6,1.1c0.7,0.7,1.1,1.5,1.1,2.5s-0.4,1.9-1.1,2.6
		c-0.7,0.7-1.5,1.1-2.5,1.1s-1.9-0.4-2.6-1.1C220.9,10.4,220.5,9.6,220.5,8.6z M226.9,18.5v24h-5.5v-24H226.9z"/>
	<path d="M255.8,31.9h-17.2c0.1,2,0.8,3.5,1.9,4.7c1.1,1.2,2.6,1.7,4.4,1.7c1.4,0,2.5-0.3,3.4-1c0.9-0.7,1.9-1.9,3-3.7l4.7,2.6
		c-0.7,1.2-1.5,2.3-2.3,3.2s-1.7,1.6-2.6,2.2s-1.9,1-3,1.2c-1.1,0.3-2.2,0.4-3.5,0.4c-3.6,0-6.5-1.2-8.6-3.5
		c-2.2-2.3-3.3-5.4-3.3-9.2c0-3.8,1.1-6.9,3.2-9.2c2.1-2.3,4.9-3.5,8.4-3.5c3.5,0,6.3,1.1,8.4,3.4c2,2.2,3.1,5.3,3.1,9.3L255.8,31.9
		z M250.1,27.3c-0.8-3-2.6-4.4-5.6-4.4c-0.7,0-1.3,0.1-1.9,0.3c-0.6,0.2-1.1,0.5-1.6,0.9c-0.5,0.4-0.9,0.9-1.2,1.4
		c-0.3,0.5-0.6,1.2-0.8,1.9H250.1z"/>
	<path d="M298.1,22.7h15.7V24c0,2.9-0.3,5.4-1,7.6c-0.7,2-1.8,3.9-3.3,5.7c-3.5,4-8,6-13.5,6c-5.3,0-9.9-1.9-13.7-5.8
		c-3.8-3.9-5.7-8.5-5.7-13.9c0-5.5,1.9-10.2,5.8-14.1c3.9-3.9,8.6-5.8,14.1-5.8c3,0,5.8,0.6,8.3,1.8c2.5,1.2,4.9,3.2,7.3,5.9
		l-4.1,3.9c-3.1-4.2-6.9-6.2-11.4-6.2c-4,0-7.4,1.4-10.1,4.2c-2.7,2.7-4.1,6.2-4.1,10.3c0,4.2,1.5,7.7,4.6,10.5
		c2.8,2.5,5.9,3.8,9.2,3.8c2.8,0,5.4-1,7.6-2.9c2.3-1.9,3.5-4.2,3.8-6.9h-9.5V22.7z"/>
	<path d="M337.7,18.5h5.6v24h-5.6v-2.5c-2.3,2.1-4.7,3.2-7.4,3.2c-3.3,0-6.1-1.2-8.2-3.6c-2.2-2.5-3.2-5.5-3.2-9.2
		c0-3.6,1.1-6.6,3.2-9c2.2-2.4,4.9-3.6,8.1-3.6c2.8,0,5.3,1.2,7.5,3.5V18.5z M324.5,30.5c0,2.3,0.6,4.2,1.8,5.6
		c1.3,1.5,2.9,2.2,4.8,2.2c2.1,0,3.7-0.7,5-2.1c1.3-1.5,1.9-3.3,1.9-5.6c0-2.3-0.6-4.1-1.9-5.6c-1.3-1.4-2.9-2.1-4.9-2.1
		c-1.9,0-3.5,0.7-4.8,2.2C325.2,26.5,324.5,28.3,324.5,30.5z"/>
	<path d="M350.3,18.5h5.5v2.1c1-1.1,1.9-1.8,2.7-2.2c0.8-0.4,1.8-0.6,2.9-0.6c1.5,0,3,0.5,4.6,1.4l-2.5,5.1
		c-1.1-0.8-2.1-1.1-3.1-1.1c-3,0-4.5,2.3-4.5,6.9v12.5h-5.5V18.5z"/>
	<path d="M386.6,0.9h5.6v41.7h-5.6v-2.5c-2.2,2.1-4.7,3.2-7.4,3.2c-3.3,0-6-1.2-8.2-3.6c-2.2-2.5-3.2-5.5-3.2-9.2
		c0-3.6,1.1-6.6,3.2-9c2.1-2.4,4.8-3.6,8.1-3.6c2.8,0,5.3,1.2,7.5,3.5V0.9z M373.4,30.5c0,2.3,0.6,4.2,1.8,5.6
		c1.3,1.5,2.9,2.2,4.8,2.2c2.1,0,3.7-0.7,5-2.1c1.3-1.5,1.9-3.3,1.9-5.6c0-2.3-0.6-4.1-1.9-5.6c-1.3-1.4-2.9-2.1-4.9-2.1
		c-1.9,0-3.5,0.7-4.8,2.2C374,26.5,373.4,28.3,373.4,30.5z"/>
	<path d="M421,31.9h-17.2c0.1,2,0.8,3.5,1.9,4.7c1.1,1.2,2.6,1.7,4.4,1.7c1.4,0,2.5-0.3,3.4-1c0.9-0.7,1.9-1.9,3-3.7l4.7,2.6
		c-0.7,1.2-1.5,2.3-2.3,3.2s-1.7,1.6-2.6,2.2s-1.9,1-3,1.2c-1.1,0.3-2.2,0.4-3.5,0.4c-3.6,0-6.5-1.2-8.6-3.5
		c-2.2-2.3-3.3-5.4-3.3-9.2c0-3.8,1.1-6.9,3.2-9.2c2.1-2.3,4.9-3.5,8.4-3.5c3.5,0,6.3,1.1,8.4,3.4c2,2.2,3.1,5.3,3.1,9.3L421,31.9z
		 M415.3,27.3c-0.8-3-2.6-4.4-5.6-4.4c-0.7,0-1.3,0.1-1.9,0.3s-1.1,0.5-1.6,0.9c-0.5,0.4-0.9,0.9-1.2,1.4c-0.3,0.5-0.6,1.2-0.8,1.9
		H415.3z"/>
	<path d="M427.1,18.5h5.6v2.2c1.9-1.9,4.1-2.9,6.6-2.9c2.8,0,5,0.9,6.5,2.6c1.3,1.5,2,3.9,2,7.3v14.7h-5.6V29.2c0-2.4-0.3-4-1-4.9
		c-0.6-0.9-1.8-1.4-3.5-1.4c-1.8,0-3.1,0.6-3.9,1.8c-0.8,1.2-1.1,3.3-1.1,6.3v11.6h-5.6V18.5z"/>
	<path d="M468.7,22.6l-4.6,2.4c-0.7-1.5-1.6-2.2-2.7-2.2c-0.5,0-0.9,0.2-1.3,0.5c-0.4,0.3-0.5,0.8-0.5,1.3c0,0.9,1.1,1.8,3.2,2.7
		c2.9,1.3,4.9,2.4,5.9,3.5c1,1.1,1.5,2.5,1.5,4.3c0,2.3-0.9,4.3-2.6,5.8c-1.7,1.5-3.7,2.2-6,2.2c-4,0-6.9-2-8.6-5.9l4.7-2.2
		c0.7,1.2,1.2,1.9,1.5,2.2c0.7,0.6,1.5,0.9,2.4,0.9c1.9,0,2.8-0.9,2.8-2.6c0-1-0.7-1.9-2.2-2.8c-0.6-0.3-1.1-0.6-1.7-0.8
		c-0.6-0.3-1.1-0.5-1.7-0.8c-1.6-0.8-2.7-1.6-3.4-2.4c-0.8-1-1.3-2.3-1.3-3.9c0-2.1,0.7-3.8,2.1-5.2c1.5-1.4,3.2-2,5.3-2
		C465,17.9,467.2,19.5,468.7,22.6z"/>
</g>
</svg>
